<svg width="32" height="48" viewBox="0 0 32 48" fill="none" xmlns="http://www.w3.org/2000/svg">
    <path fill-rule="evenodd" clip-rule="evenodd" d="M31.28 34.5685H23.04C22.333 34.5685 21.76 33.9954 21.76 33.2885V26.88H29.2725C29.6243 26.88 29.9246 26.6258 29.9826 26.2788L30.4913 23.2388C30.5649 22.7998 30.2263 22.4 29.7813 22.4H17.28V33.2885C17.28 36.4697 19.8588 39.0485 23.04 39.0485H27.52V42.38C25.3034 43.2221 23.4065 43.52 20.9624 43.52C14.581 43.52 11.1103 40.1771 10.8913 33.9285H10.88V22.4H1.22887C0.877108 22.4 0.576788 22.6542 0.518708 23.0012L0.010068 26.0412C-0.063452 26.4802 0.275028 26.88 0.720148 26.88H6.39999V33.9285H6.41023C6.53247 38.1238 7.86159 41.6553 10.2744 44.0873C12.8138 46.647 16.5097 48 20.9624 48C24.7139 48 27.5565 47.38 31.2655 45.6454C31.7145 45.4355 32 44.983 32 44.4874V35.2885C32 34.8908 31.6777 34.5685 31.28 34.5685Z" fill="#0086FF"/>
    <path fill-rule="evenodd" clip-rule="evenodd" d="M2.21962 17.92H10.88V8.30718L17.28 6.04086V17.92H30.7711C31.1229 17.92 31.4232 17.6657 31.4813 17.3188L31.9899 14.2788C32.0635 13.8398 31.7249 13.44 31.2799 13.44H21.76V0.720538C21.76 0.223498 21.2682 -0.124022 20.7997 0.0418977L6.8797 4.97118C6.59218 5.07302 6.40002 5.34494 6.40002 5.6499V13.44H2.72834C2.37658 13.44 2.07626 13.6942 2.01818 14.0412L1.50946 17.0812C1.43602 17.5201 1.77458 17.92 2.21962 17.92Z" fill="#0086FF"/>
</svg>